<?xml version="1.0" encoding="UTF-8" standalone="no"?>
<!-- Created with Inkscape (http://www.inkscape.org/) -->

<svg
   xmlns:dc="http://purl.org/dc/elements/1.1/"
   xmlns:cc="http://creativecommons.org/ns#"
   xmlns:rdf="http://www.w3.org/1999/02/22-rdf-syntax-ns#"
   xmlns:svg="http://www.w3.org/2000/svg"
   xmlns="http://www.w3.org/2000/svg"
   xmlns:sodipodi="http://sodipodi.sourceforge.net/DTD/sodipodi-0.dtd"
   xmlns:inkscape="http://www.inkscape.org/namespaces/inkscape"
   width="16"
   height="16"
   viewBox="0 0 16 16"
   id="svg3484"
   version="1.1"
   inkscape:version="0.91 r13725"
   sodipodi:docname="favicon.svg">
  <defs
     id="defs3486" />
  <sodipodi:namedview
     id="base"
     pagecolor="#ffffff"
     bordercolor="#666666"
     borderopacity="1.0"
     inkscape:pageopacity="0.0"
     inkscape:pageshadow="2"
     inkscape:zoom="2.0792405"
     inkscape:cx="233.36711"
     inkscape:cy="-30.75395"
     inkscape:document-units="px"
     inkscape:current-layer="layer1"
     showgrid="true"
     inkscape:window-width="1920"
     inkscape:window-height="1017"
     inkscape:window-x="-8"
     inkscape:window-y="-8"
     inkscape:window-maximized="1"
     inkscape:snap-center="true"
     inkscape:snap-object-midpoints="true"
     units="px">
    <inkscape:grid
       type="xygrid"
       id="grid3336" />
  </sodipodi:namedview>
  <metadata
     id="metadata3489">
    <rdf:RDF>
      <cc:Work
         rdf:about="">
        <dc:format>image/svg+xml</dc:format>
        <dc:type
           rdf:resource="http://purl.org/dc/dcmitype/StillImage" />
        <dc:title></dc:title>
      </cc:Work>
    </rdf:RDF>
  </metadata>
  <g
     inkscape:label="Layer 1"
     inkscape:groupmode="layer"
     id="layer1"
     transform="translate(0,-1036.3621)">
    <g
       id="g4144"
       style="fill:#3f51b5;fill-opacity:1">
      <path
         inkscape:export-ydpi="65.454544"
         inkscape:export-xdpi="65.454544"
         inkscape:export-filename="D:\Users\Philipp\Coding\Projects\node.js\imdb_ratings\public\favicon.png"
         inkscape:connector-curvature="0"
         id="path7"
         d="m 13.727273,1038.6349 -11.4545456,0 c -0.7,0 -1.2727273,0.5727 -1.2727273,1.2727 l 0,7.6362 c 0,0.7001 0.5727273,1.2728 1.2727273,1.2728 l 3.1818182,0 0,1.2727 5.0909094,0 0,-1.2727 3.181818,0 c 0.7,0 1.266364,-0.5727 1.266364,-1.2728 L 15,1039.9076 c 0,-0.7 -0.572727,-1.2727 -1.272727,-1.2727 z m 0,8.909 -11.4545456,0 0,-7.6363 11.4545456,0 0,7.6363 z"
         style="fill:#3f51b5;fill-opacity:1" />
      <path
         style="stroke:none;stroke-opacity:1;fill:#3f51b5;fill-opacity:1"
         inkscape:export-ydpi="65.454544"
         inkscape:export-xdpi="65.454544"
         inkscape:export-filename="D:\Users\Philipp\Coding\Projects\node.js\imdb_ratings\public\favicon.png"
         inkscape:connector-curvature="0"
         id="path8"
         d="m 9.909091,1040.8621 1.092954,1.093 -2.3290903,2.3291 -1.9090909,-1.9091 -3.536591,3.5414 0.6729547,0.6729 2.8636363,-2.8637 1.9090909,1.9092 3.0068183,-3.0021 1.092954,1.0929 0,-2.8636 z" />
    </g>
  </g>
</svg>
